# Blender 5.0.1
# www.blender.org
mtllib couch.mtl
o ExtraCube2.003
v -1.316903 2.870571 3.383029
v -1.316903 2.578514 3.383029
v 1.393278 2.870571 3.383029
v 1.393278 2.578514 3.383029
v -1.316903 2.870571 3.672965
v -1.316903 2.578514 3.672965
v 1.393278 2.870571 3.672965
v 1.393278 2.578514 3.672965
v 1.395283 1.876966 3.367900
v 1.103225 1.876966 3.367900
v 1.395282 0.367824 3.367900
v 1.103225 0.367824 3.367900
v 1.395283 1.876966 3.657836
v 1.103225 1.876966 3.657836
v 1.395282 0.367824 3.657836
v 1.103225 0.367824 3.657836
v 1.395691 1.287318 -3.353031
v 1.395691 1.040767 -3.353031
v 1.395691 1.287318 3.659851
v 1.395691 1.040767 3.659851
v -1.372856 1.287318 -3.353031
v -1.372856 1.040767 -3.353031
v -1.372856 1.287318 3.659851
v -1.372856 1.040767 3.659851
v -1.120217 1.232344 -3.286100
v -1.366768 1.232344 -3.286100
v -1.120217 1.232344 3.593834
v -1.366768 1.232344 3.593834
v -1.120217 3.072737 -3.286100
v -1.366768 3.072737 -3.286100
v -1.120217 3.072737 3.593834
v -1.366768 3.072737 3.593834
v 1.243230 1.535223 -2.936853
v 1.243230 1.243166 -2.936853
v 1.243230 1.535223 3.250563
v 1.243230 1.243166 3.250563
v -1.147305 1.535223 -2.936853
v -1.147305 1.243166 -2.936853
v -1.147305 1.535223 3.250563
v -1.147305 1.243166 3.250563
v -0.848315 2.918621 -2.866210
v -1.140372 2.918621 -2.866210
v -0.848315 1.714563 -2.866210
v -1.140372 1.714563 -2.866210
v -0.848314 2.918621 3.162120
v -1.140372 2.918621 3.162120
v -0.848314 1.714563 3.162120
v -1.140372 1.714563 3.162120
v 1.395282 1.876966 -3.355752
v 1.103225 1.876966 -3.355752
v 1.395282 0.367824 -3.355752
v 1.103225 0.367824 -3.355752
v 1.395283 1.876966 -3.065815
v 1.103225 1.876966 -3.065815
v 1.395283 0.367824 -3.065815
v 1.103225 0.367824 -3.065815
v -1.080990 3.668437 -3.346320
v -1.373047 3.668437 -3.346320
v -1.080990 0.381960 -3.346320
v -1.373047 0.381960 -3.346320
v -1.080990 3.668437 -3.056384
v -1.373047 3.668437 -3.056384
v -1.080990 0.381960 -3.056384
v -1.373047 0.381960 -3.056384
v -1.316903 2.169220 -3.355752
v -1.316903 1.877163 -3.355752
v 1.393278 2.169220 -3.355752
v 1.393278 1.877163 -3.355752
v -1.316903 2.169220 -3.065815
v -1.316903 1.877163 -3.065815
v 1.393278 2.169220 -3.065815
v 1.393278 1.877163 -3.065815
v -1.316903 2.169220 3.367900
v -1.316903 1.877163 3.367900
v 1.393278 2.169220 3.367900
v 1.393278 1.877163 3.367900
v -1.316903 2.169220 3.657836
v -1.316903 1.877163 3.657836
v 1.393278 2.169220 3.657836
v 1.393278 1.877163 3.657836
v -1.080990 3.668437 3.365379
v -1.373047 3.668437 3.365379
v -1.080990 0.381960 3.365379
v -1.373048 0.381960 3.365379
v -1.080990 3.668437 3.655315
v -1.373047 3.668437 3.655315
v -1.080990 0.381960 3.655315
v -1.373048 0.381960 3.655315
v 1.394260 3.668437 -3.346320
v 1.102203 3.668437 -3.346320
v 1.394260 0.381960 -3.346320
v 1.102202 0.381960 -3.346320
v 1.394260 3.668437 -3.056384
v 1.102203 3.668437 -3.056384
v 1.394260 0.381960 -3.056384
v 1.102203 0.381960 -3.056384
v 1.394260 3.668437 3.374178
v 1.102203 3.668437 3.374178
v 1.394260 0.381960 3.374178
v 1.102202 0.381960 3.374178
v 1.394260 3.668437 3.664114
v 1.102203 3.668437 3.664114
v 1.394260 0.381960 3.664114
v 1.102202 0.381960 3.664114
v -1.316903 2.870571 -3.334403
v -1.316903 2.578514 -3.334403
v 1.393278 2.870571 -3.334403
v 1.393278 2.578514 -3.334403
v -1.316903 2.870571 -3.044466
v -1.316903 2.578514 -3.044466
v 1.393278 2.870571 -3.044466
v 1.393278 2.578514 -3.044466
v 1.395283 5.017477 3.367900
v 1.103225 5.017477 3.367900
v 1.395282 3.508335 3.367900
v 1.103225 3.508335 3.367900
v 1.395283 5.017477 3.657836
v 1.103225 5.017477 3.657836
v 1.395282 3.508335 3.657836
v 1.103225 3.508335 3.657836
v 1.395691 4.427829 -3.353030
v 1.395691 4.181278 -3.353030
v 1.395691 4.427829 3.659851
v 1.395691 4.181278 3.659851
v -1.372856 4.427829 -3.353030
v -1.372856 4.181278 -3.353030
v -1.372856 4.427829 3.659851
v -1.372856 4.181278 3.659851
v -1.120217 4.372855 -3.286099
v -1.366768 4.372855 -3.286099
v -1.120217 4.372854 3.593834
v -1.366768 4.372854 3.593834
v -1.120217 6.213247 -3.286099
v -1.366768 6.213247 -3.286099
v -1.120217 6.213247 3.593834
v -1.366768 6.213247 3.593834
v 1.243230 4.675734 -2.936853
v 1.243230 4.383677 -2.936853
v 1.243230 4.675734 3.250563
v 1.243230 4.383677 3.250563
v -1.147305 4.675734 -2.936853
v -1.147305 4.383677 -2.936853
v -1.147305 4.675734 3.250563
v -1.147305 4.383677 3.250563
v -0.848315 6.059132 -2.866210
v -1.140372 6.059132 -2.866210
v -0.848315 4.855074 -2.866210
v -1.140372 4.855074 -2.866210
v -0.848314 6.059132 3.162120
v -1.140372 6.059132 3.162120
v -0.848314 4.855074 3.162120
v -1.140372 4.855074 3.162120
v 1.395282 5.017477 -3.355751
v 1.103225 5.017477 -3.355751
v 1.395282 3.508335 -3.355751
v 1.103225 3.508335 -3.355751
v 1.395283 5.017477 -3.065815
v 1.103225 5.017477 -3.065815
v 1.395283 3.508335 -3.065815
v 1.103225 3.508335 -3.065815
v -1.080990 6.808948 -3.346319
v -1.373047 6.808948 -3.346319
v -1.080990 3.522470 -3.346319
v -1.373047 3.522470 -3.346319
v -1.080990 6.808948 -3.056383
v -1.373047 6.808948 -3.056383
v -1.080990 3.522470 -3.056383
v -1.373047 3.522470 -3.056383
v -1.316903 5.309731 -3.355751
v -1.316903 5.017674 -3.355751
v 1.393278 5.309731 -3.355751
v 1.393278 5.017674 -3.355751
v -1.316903 5.309731 -3.065815
v -1.316903 5.017674 -3.065815
v 1.393278 5.309731 -3.065815
v 1.393278 5.017674 -3.065815
v -1.316903 5.309731 3.367900
v -1.316903 5.017674 3.367900
v 1.393278 5.309731 3.367900
v 1.393278 5.017674 3.367900
v -1.316903 5.309731 3.657836
v -1.316903 5.017674 3.657836
v 1.393278 5.309731 3.657836
v 1.393278 5.017674 3.657836
v -1.080990 6.808948 3.365379
v -1.373047 6.808948 3.365379
v -1.080990 3.522470 3.365379
v -1.373048 3.522470 3.365379
v -1.080990 6.808948 3.655315
v -1.373047 6.808948 3.655315
v -1.080990 3.522470 3.655315
v -1.373048 3.522470 3.655315
v -1.316903 3.691367 -3.334403
v -1.316903 3.399310 -3.334403
v 1.393278 3.691367 -3.334403
v 1.393278 3.399310 -3.334403
v -1.316903 3.691367 -3.044466
v -1.316903 3.399310 -3.044466
v 1.393278 3.691367 -3.044466
v 1.393278 3.399310 -3.044466
v -1.316903 3.691367 3.383029
v -1.316903 3.399310 3.383029
v 1.393278 3.691367 3.383029
v 1.393278 3.399310 3.383029
v -1.316903 3.691367 3.672965
v -1.316903 3.399310 3.672965
v 1.393278 3.691367 3.672965
v 1.393278 3.399310 3.672965
vn -0.0000 1.0000 -0.0000
vn 1.0000 -0.0000 -0.0000
vn -0.0000 -0.0000 1.0000
vn -0.0000 -1.0000 -0.0000
vn -0.0000 -0.0000 -1.0000
vn -1.0000 -0.0000 -0.0000
vt 0.875000 0.500000
vt 0.625000 0.750000
vt 0.625000 0.500000
vt 0.375000 1.000000
vt 0.375000 0.750000
vt 0.625000 0.000000
vt 0.375000 0.250000
vt 0.375000 0.000000
vt 0.375000 0.500000
vt 0.125000 0.750000
vt 0.125000 0.500000
vt 0.625000 0.250000
vt 0.875000 0.750000
vt 0.625000 1.000000
s 0
usemtl Material.033
f 5/1/1 3/2/1 1/3/1
f 3/2/2 8/4/2 4/5/2
f 7/6/3 6/7/3 8/8/3
f 2/9/4 8/10/4 6/11/4
f 1/3/5 4/5/5 2/9/5
f 5/12/6 2/9/6 6/7/6
f 5/1/1 7/13/1 3/2/1
f 3/2/2 7/14/2 8/4/2
f 7/6/3 5/12/3 6/7/3
f 2/9/4 4/5/4 8/10/4
f 1/3/5 3/2/5 4/5/5
f 5/12/6 1/3/6 2/9/6
usemtl Material.016
f 13/1/2 11/2/2 9/3/2
f 11/2/4 16/4/4 12/5/4
f 15/6/3 14/7/3 16/8/3
f 10/9/6 16/10/6 14/11/6
f 9/3/5 12/5/5 10/9/5
f 13/12/1 10/9/1 14/7/1
f 13/1/2 15/13/2 11/2/2
f 11/2/4 15/14/4 16/4/4
f 15/6/3 13/12/3 14/7/3
f 10/9/6 12/5/6 16/10/6
f 9/3/5 11/2/5 12/5/5
f 13/12/1 9/3/1 10/9/1
usemtl Material
f 21/1/1 19/2/1 17/3/1
f 19/2/3 24/4/3 20/5/3
f 23/6/6 22/7/6 24/8/6
f 18/9/4 24/10/4 22/11/4
f 17/3/2 20/5/2 18/9/2
f 21/12/5 18/9/5 22/7/5
f 21/1/1 23/13/1 19/2/1
f 19/2/3 23/14/3 24/4/3
f 23/6/6 21/12/6 22/7/6
f 18/9/4 20/5/4 24/10/4
f 17/3/2 19/2/2 20/5/2
f 21/12/5 17/3/5 18/9/5
usemtl Material.001
f 29/1/2 27/2/2 25/3/2
f 27/2/3 32/4/3 28/5/3
f 31/6/1 30/7/1 32/8/1
f 26/9/6 32/10/6 30/11/6
f 25/3/4 28/5/4 26/9/4
f 30/7/5 25/3/5 26/9/5
f 29/1/2 31/13/2 27/2/2
f 27/2/3 31/14/3 32/4/3
f 31/6/1 29/12/1 30/7/1
f 26/9/6 28/5/6 32/10/6
f 25/3/4 27/2/4 28/5/4
f 30/7/5 29/12/5 25/3/5
usemtl Material.002
f 33/3/1 39/13/1 35/2/1
f 35/2/3 40/4/3 36/5/3
f 39/6/6 38/7/6 40/8/6
f 38/11/4 36/5/4 40/10/4
f 33/3/2 36/5/2 34/9/2
f 37/12/5 34/9/5 38/7/5
f 33/3/1 37/1/1 39/13/1
f 35/2/3 39/14/3 40/4/3
f 39/6/6 37/12/6 38/7/6
f 38/11/4 34/9/4 36/5/4
f 33/3/2 35/2/2 36/5/2
f 37/12/5 33/3/5 34/9/5
usemtl Material.007
f 45/1/2 43/2/2 41/3/2
f 43/2/4 48/4/4 44/5/4
f 48/8/3 45/12/3 46/7/3
f 42/9/6 48/10/6 46/11/6
f 41/3/5 44/5/5 42/9/5
f 45/12/1 42/9/1 46/7/1
f 45/1/2 47/13/2 43/2/2
f 43/2/4 47/14/4 48/4/4
f 48/8/3 47/6/3 45/12/3
f 42/9/6 44/5/6 48/10/6
f 41/3/5 43/2/5 44/5/5
f 45/12/1 41/3/1 42/9/1
usemtl Material.009
f 53/1/2 51/2/2 49/3/2
f 51/2/4 56/4/4 52/5/4
f 55/6/3 54/7/3 56/8/3
f 50/9/6 56/10/6 54/11/6
f 49/3/5 52/5/5 50/9/5
f 54/7/1 49/3/1 50/9/1
f 53/1/2 55/13/2 51/2/2
f 51/2/4 55/14/4 56/4/4
f 55/6/3 53/12/3 54/7/3
f 50/9/6 52/5/6 56/10/6
f 49/3/5 51/2/5 52/5/5
f 54/7/1 53/12/1 49/3/1
usemtl Material.011
f 61/1/2 59/2/2 57/3/2
f 59/2/4 64/4/4 60/5/4
f 64/8/3 61/12/3 62/7/3
f 58/9/6 64/10/6 62/11/6
f 57/3/5 60/5/5 58/9/5
f 62/7/1 57/3/1 58/9/1
f 61/1/2 63/13/2 59/2/2
f 59/2/4 63/14/4 64/4/4
f 64/8/3 63/6/3 61/12/3
f 58/9/6 60/5/6 64/10/6
f 57/3/5 59/2/5 60/5/5
f 62/7/1 61/12/1 57/3/1
usemtl Material.014
f 69/1/1 67/2/1 65/3/1
f 67/2/2 72/4/2 68/5/2
f 72/8/3 69/12/3 70/7/3
f 66/9/4 72/10/4 70/11/4
f 65/3/5 68/5/5 66/9/5
f 69/12/6 66/9/6 70/7/6
f 69/1/1 71/13/1 67/2/1
f 67/2/2 71/14/2 72/4/2
f 72/8/3 71/6/3 69/12/3
f 66/9/4 68/5/4 72/10/4
f 65/3/5 67/2/5 68/5/5
f 69/12/6 65/3/6 66/9/6
usemtl Material.015
f 77/1/1 75/2/1 73/3/1
f 75/2/2 80/4/2 76/5/2
f 79/6/3 78/7/3 80/8/3
f 74/9/4 80/10/4 78/11/4
f 73/3/5 76/5/5 74/9/5
f 77/12/6 74/9/6 78/7/6
f 77/1/1 79/13/1 75/2/1
f 75/2/2 79/14/2 80/4/2
f 79/6/3 77/12/3 78/7/3
f 74/9/4 76/5/4 80/10/4
f 73/3/5 75/2/5 76/5/5
f 77/12/6 73/3/6 74/9/6
usemtl Material.017
f 85/1/2 83/2/2 81/3/2
f 83/2/4 88/4/4 84/5/4
f 87/6/3 86/7/3 88/8/3
f 82/9/6 88/10/6 86/11/6
f 81/3/5 84/5/5 82/9/5
f 85/12/1 82/9/1 86/7/1
f 85/1/2 87/13/2 83/2/2
f 83/2/4 87/14/4 88/4/4
f 87/6/3 85/12/3 86/7/3
f 82/9/6 84/5/6 88/10/6
f 81/3/5 83/2/5 84/5/5
f 85/12/1 81/3/1 82/9/1
usemtl Material.018
f 93/1/2 91/2/2 89/3/2
f 91/2/4 96/4/4 92/5/4
f 95/6/3 94/7/3 96/8/3
f 90/9/6 96/10/6 94/11/6
f 89/3/5 92/5/5 90/9/5
f 94/7/1 89/3/1 90/9/1
f 93/1/2 95/13/2 91/2/2
f 91/2/4 95/14/4 96/4/4
f 95/6/3 93/12/3 94/7/3
f 90/9/6 92/5/6 96/10/6
f 89/3/5 91/2/5 92/5/5
f 94/7/1 93/12/1 89/3/1
usemtl Material.019
f 101/1/2 99/2/2 97/3/2
f 99/2/4 104/4/4 100/5/4
f 103/6/3 102/7/3 104/8/3
f 98/9/6 104/10/6 102/11/6
f 97/3/5 100/5/5 98/9/5
f 101/12/1 98/9/1 102/7/1
f 101/1/2 103/13/2 99/2/2
f 99/2/4 103/14/4 104/4/4
f 103/6/3 101/12/3 102/7/3
f 98/9/6 100/5/6 104/10/6
f 97/3/5 99/2/5 100/5/5
f 101/12/1 97/3/1 98/9/1
usemtl Material.020
f 109/1/1 107/2/1 105/3/1
f 107/2/2 112/4/2 108/5/2
f 111/6/3 110/7/3 112/8/3
f 106/9/4 112/10/4 110/11/4
f 105/3/5 108/5/5 106/9/5
f 109/12/6 106/9/6 110/7/6
f 109/1/1 111/13/1 107/2/1
f 107/2/2 111/14/2 112/4/2
f 111/6/3 109/12/3 110/7/3
f 106/9/4 108/5/4 112/10/4
f 105/3/5 107/2/5 108/5/5
f 109/12/6 105/3/6 106/9/6
usemtl Material.021
f 117/1/2 115/2/2 113/3/2
f 116/5/4 119/14/4 120/4/4
f 119/6/3 118/7/3 120/8/3
f 114/9/6 120/10/6 118/11/6
f 113/3/5 116/5/5 114/9/5
f 117/12/1 114/9/1 118/7/1
f 117/1/2 119/13/2 115/2/2
f 116/5/4 115/2/4 119/14/4
f 119/6/3 117/12/3 118/7/3
f 114/9/6 116/5/6 120/10/6
f 113/3/5 115/2/5 116/5/5
f 117/12/1 113/3/1 114/9/1
usemtl Material.022
f 125/1/1 123/2/1 121/3/1
f 123/2/3 128/4/3 124/5/3
f 127/6/6 126/7/6 128/8/6
f 122/9/4 128/10/4 126/11/4
f 121/3/2 124/5/2 122/9/2
f 125/12/5 122/9/5 126/7/5
f 125/1/1 127/13/1 123/2/1
f 123/2/3 127/14/3 128/4/3
f 127/6/6 125/12/6 126/7/6
f 122/9/4 124/5/4 128/10/4
f 121/3/2 123/2/2 124/5/2
f 125/12/5 121/3/5 122/9/5
usemtl Material.023
f 133/1/2 131/2/2 129/3/2
f 131/2/3 136/4/3 132/5/3
f 135/6/1 134/7/1 136/8/1
f 130/9/6 136/10/6 134/11/6
f 129/3/4 132/5/4 130/9/4
f 134/7/5 129/3/5 130/9/5
f 133/1/2 135/13/2 131/2/2
f 131/2/3 135/14/3 136/4/3
f 135/6/1 133/12/1 134/7/1
f 130/9/6 132/5/6 136/10/6
f 129/3/4 131/2/4 132/5/4
f 134/7/5 133/12/5 129/3/5
usemtl Material.024
f 137/3/1 143/13/1 139/2/1
f 139/2/3 144/4/3 140/5/3
f 143/6/6 142/7/6 144/8/6
f 142/11/4 140/5/4 144/10/4
f 137/3/2 140/5/2 138/9/2
f 141/12/5 138/9/5 142/7/5
f 137/3/1 141/1/1 143/13/1
f 139/2/3 143/14/3 144/4/3
f 143/6/6 141/12/6 142/7/6
f 142/11/4 138/9/4 140/5/4
f 137/3/2 139/2/2 140/5/2
f 141/12/5 137/3/5 138/9/5
usemtl Material.025
f 149/1/2 147/2/2 145/3/2
f 147/2/4 152/4/4 148/5/4
f 151/6/3 150/7/3 152/8/3
f 146/9/6 152/10/6 150/11/6
f 145/3/5 148/5/5 146/9/5
f 149/12/1 146/9/1 150/7/1
f 149/1/2 151/13/2 147/2/2
f 147/2/4 151/14/4 152/4/4
f 151/6/3 149/12/3 150/7/3
f 146/9/6 148/5/6 152/10/6
f 145/3/5 147/2/5 148/5/5
f 149/12/1 145/3/1 146/9/1
usemtl Material.026
f 157/1/2 155/2/2 153/3/2
f 155/2/4 160/4/4 156/5/4
f 159/6/3 158/7/3 160/8/3
f 154/9/6 160/10/6 158/11/6
f 153/3/5 156/5/5 154/9/5
f 158/7/1 153/3/1 154/9/1
f 157/1/2 159/13/2 155/2/2
f 155/2/4 159/14/4 160/4/4
f 159/6/3 157/12/3 158/7/3
f 154/9/6 156/5/6 160/10/6
f 153/3/5 155/2/5 156/5/5
f 158/7/1 157/12/1 153/3/1
usemtl Material.027
f 165/1/2 163/2/2 161/3/2
f 163/2/4 168/4/4 164/5/4
f 167/6/3 166/7/3 168/8/3
f 162/9/6 168/10/6 166/11/6
f 161/3/5 164/5/5 162/9/5
f 166/7/1 161/3/1 162/9/1
f 165/1/2 167/13/2 163/2/2
f 163/2/4 167/14/4 168/4/4
f 167/6/3 165/12/3 166/7/3
f 162/9/6 164/5/6 168/10/6
f 161/3/5 163/2/5 164/5/5
f 166/7/1 165/12/1 161/3/1
usemtl Material.028
f 173/1/1 171/2/1 169/3/1
f 171/2/2 176/4/2 172/5/2
f 176/8/3 173/12/3 174/7/3
f 170/9/4 176/10/4 174/11/4
f 169/3/5 172/5/5 170/9/5
f 173/12/6 170/9/6 174/7/6
f 173/1/1 175/13/1 171/2/1
f 171/2/2 175/14/2 176/4/2
f 176/8/3 175/6/3 173/12/3
f 170/9/4 172/5/4 176/10/4
f 169/3/5 171/2/5 172/5/5
f 173/12/6 169/3/6 170/9/6
usemtl Material.029
f 181/1/1 179/2/1 177/3/1
f 179/2/2 184/4/2 180/5/2
f 183/6/3 182/7/3 184/8/3
f 178/9/4 184/10/4 182/11/4
f 177/3/5 180/5/5 178/9/5
f 181/12/6 178/9/6 182/7/6
f 181/1/1 183/13/1 179/2/1
f 179/2/2 183/14/2 184/4/2
f 183/6/3 181/12/3 182/7/3
f 178/9/4 180/5/4 184/10/4
f 177/3/5 179/2/5 180/5/5
f 181/12/6 177/3/6 178/9/6
usemtl Material.030
f 189/1/2 187/2/2 185/3/2
f 187/2/4 192/4/4 188/5/4
f 191/6/3 190/7/3 192/8/3
f 186/9/6 192/10/6 190/11/6
f 185/3/5 188/5/5 186/9/5
f 189/12/1 186/9/1 190/7/1
f 189/1/2 191/13/2 187/2/2
f 187/2/4 191/14/4 192/4/4
f 191/6/3 189/12/3 190/7/3
f 186/9/6 188/5/6 192/10/6
f 185/3/5 187/2/5 188/5/5
f 189/12/1 185/3/1 186/9/1
usemtl Material.031
f 197/1/1 195/2/1 193/3/1
f 195/2/2 200/4/2 196/5/2
f 199/6/3 198/7/3 200/8/3
f 194/9/4 200/10/4 198/11/4
f 193/3/5 196/5/5 194/9/5
f 197/12/6 194/9/6 198/7/6
f 197/1/1 199/13/1 195/2/1
f 195/2/2 199/14/2 200/4/2
f 199/6/3 197/12/3 198/7/3
f 194/9/4 196/5/4 200/10/4
f 193/3/5 195/2/5 196/5/5
f 197/12/6 193/3/6 194/9/6
usemtl Material.032
f 205/1/1 203/2/1 201/3/1
f 203/2/2 208/4/2 204/5/2
f 207/6/3 206/7/3 208/8/3
f 202/9/4 208/10/4 206/11/4
f 201/3/5 204/5/5 202/9/5
f 205/12/6 202/9/6 206/7/6
f 205/1/1 207/13/1 203/2/1
f 203/2/2 207/14/2 208/4/2
f 207/6/3 205/12/3 206/7/3
f 202/9/4 204/5/4 208/10/4
f 201/3/5 203/2/5 204/5/5
f 205/12/6 201/3/6 202/9/6
